<svg xmlns="http://www.w3.org/2000/svg" viewBox="0 0 100 100" width="100%" height="100%">
  <path d="M15 70 C15 80, 85 80, 85 70 Z" fill="#D39243" />
  <rect x="10" y="58" width="80" height="12" rx="6" fill="#6A3B2B" />
  <polygon points="12,58 88,58 80,66 60,58 40,66 20,58" fill="#FFC107" />
  <path d="M8 52 Q15 46 22 52 Q30 46 38 52 Q45 46 52 52 Q60 46 68 52 Q75 46 82 52 Q90 46 92 52" stroke="#4CAF50" stroke-width="6" fill="none" stroke-linecap="round" />
  <path d="M15 48 C15 20, 85 20, 85 48 Z" fill="#D39243" />
  <circle cx="35" cy="30" r="1.5" fill="#FFF" opacity="0.8" />
  <circle cx="50" cy="26" r="1.5" fill="#FFF" opacity="0.8" />
  <circle cx="65" cy="32" r="1.5" fill="#FFF" opacity="0.8" />
  <circle cx="45" cy="36" r="1.5" fill="#FFF" opacity="0.8" />
</svg>
