<svg xmlns="http://www.w3.org/2000/svg" viewBox="0 0 100 100" width="100%" height="100%">
  <!-- Pretzel Loop Outer -->
  <path d="M 50 20 C 25 20, 20 45, 35 60 C 50 75, 50 60, 50 55 C 50 60, 50 75, 65 60 C 80 45, 75 20, 50 20 Z" fill="none" stroke="#A16B47" stroke-width="12" stroke-linejoin="round" stroke-linecap="round" />
  <!-- Inner Loops Overlap -->
  <path d="M 35 60 C 50 45, 62 42, 50 20" fill="none" stroke="#A16B47" stroke-width="12" stroke-linecap="round" />
  <path d="M 65 60 C 50 45, 38 42, 50 20" fill="none" stroke="#8D5B38" stroke-width="12" stroke-linecap="round" />
  <!-- Salt crystals -->
  <rect x="48" y="24" width="4" height="2" fill="#FFF" rx="0.5" />
  <rect x="28" y="38" width="4" height="2" fill="#FFF" rx="0.5" transform="rotate(30 28 38)" />
  <rect x="68" y="38" width="4" height="2" fill="#FFF" rx="0.5" transform="rotate(-30 68 38)" />
  <rect x="36" y="54" width="4" height="2" fill="#FFF" rx="0.5" transform="rotate(45 36 54)" />
  <rect x="60" y="54" width="4" height="2" fill="#FFF" rx="0.5" transform="rotate(-45 60 54)" />
</svg>
