<svg xmlns="http://www.w3.org/2000/svg" viewBox="0 0 100 100" width="100%" height="100%">
  <!-- Strawberry Body -->
  <path d="M50 85 C15 70 12 35 30 25 C40 20 60 20 70 25 C88 35 85 70 50 85 Z" fill="#E53935" />
  <!-- Leaves (Sepal) -->
  <path d="M50 22 L42 12 L48 20 L58 12 L52 22 L65 14 L55 24 L35 14 L45 24 Z" fill="#4CAF50" />
  <!-- Seeds -->
  <circle cx="34" cy="38" r="1.2" fill="#FFEB3B" />
  <circle cx="48" cy="36" r="1.2" fill="#FFEB3B" />
  <circle cx="62" cy="38" r="1.2" fill="#FFEB3B" />
  <circle cx="40" cy="50" r="1.2" fill="#FFEB3B" />
  <circle cx="56" cy="48" r="1.2" fill="#FFEB3B" />
  <circle cx="48" cy="62" r="1.2" fill="#FFEB3B" />
  <circle cx="34" cy="56" r="1.2" fill="#FFEB3B" />
  <circle cx="64" cy="56" r="1.2" fill="#FFEB3B" />
  <circle cx="48" cy="74" r="1.2" fill="#FFEB3B" />
</svg>
